<?xml version="1.0" encoding="UTF-8"?>
<svg width="128" height="128" viewBox="0 0 128 128" fill="none" xmlns="http://www.w3.org/2000/svg">
  <!-- Background -->
  <circle cx="64" cy="64" r="64" fill="#6D5AE6" opacity="0.12"/>
  
  <!-- Soft glow -->
  <circle cx="64" cy="64" r="56" fill="#6D5AE6" opacity="0.08"/>
  
  <!-- Robot head base -->
  <rect x="28" y="40" width="72" height="56" rx="28" fill="#6D5AE6"/>
  
  <!-- Elf hat base -->
  <path 
    d="M28 42C28 26 44 14 64 14C84 14 100 26 100 42" 
    fill="#4CAF50"
  />
  
  <!-- Hat decoration -->
  <path 
    d="M64 14C54 14 48 8 64 4C80 8 74 14 64 14Z" 
    fill="#388E3C"
  />
  <circle cx="64" cy="4" r="4" fill="#FFC107"/>
  
  <!-- Robot face plate -->
  <rect x="36" y="52" width="56" height="36" rx="18" fill="#7C6BED"/>
  
  <!-- Eyes -->
  <g>
    <!-- Left eye -->
    <circle cx="48" cy="70" r="8" fill="white"/>
    <circle cx="48" cy="70" r="4" fill="#333333"/>
    <circle cx="46" cy="68" r="2" fill="white"/>
    
    <!-- Right eye -->
    <circle cx="80" cy="70" r="8" fill="white"/>
    <circle cx="80" cy="70" r="4" fill="#333333"/>
    <circle cx="78" cy="68" r="2" fill="white"/>
  </g>
  
  <!-- Smile -->
  <path 
    d="M52 82C52 82 58 88 64 88C70 88 76 82 76 82" 
    stroke="white" 
    stroke-width="3" 
    stroke-linecap="round"
  />
  
  <!-- Antenna -->
  <rect x="62" y="18" width="4" height="22" fill="#6D5AE6"/>
  <circle cx="64" cy="16" r="3" fill="#7C6BED"/>
  
  <!-- Side panels -->
  <path d="M28 56L20 62V76L28 82" fill="#5B4AC2"/>
  <path d="M100 56L108 62V76L100 82" fill="#5B4AC2"/>
</svg> 